<svg width="136" height="136" viewBox="0 0 136 136" fill="none" xmlns="http://www.w3.org/2000/svg">
<path d="M17.5592 16.8889C17.3801 16.8923 17.2041 16.936 17.0442 17.0166C16.8842 17.0973 16.7445 17.2129 16.6353 17.3548C16.5261 17.4968 16.4502 17.6615 16.4133 17.8368C16.3764 18.0121 16.3794 18.1934 16.4221 18.3674L42.2019 122.719C42.2522 122.922 42.3551 123.109 42.5003 123.259C42.6455 123.41 42.8278 123.521 43.0289 123.579C43.2301 123.637 43.4431 123.641 43.6464 123.591C43.8498 123.541 44.0364 123.439 44.1876 123.294L121.743 48.6935C121.893 48.5482 122.003 48.3657 122.061 48.1644C122.119 47.9632 122.123 47.7502 122.073 47.5469C122.023 47.3435 121.92 47.157 121.775 47.006C121.629 46.8551 121.447 46.7449 121.246 46.6867L17.909 16.9354C17.7955 16.9022 17.6775 16.8865 17.5592 16.8889ZM19.2332 19.7994L118.599 48.4072L44.0238 120.14L19.2332 19.7994Z" fill="white"/>
<path d="M69.256 31.7669C69.0989 31.7635 68.9427 31.7912 68.7964 31.8483C68.65 31.9055 68.5164 31.9909 68.4031 32.0998L29.6436 69.4104C29.4931 69.5558 29.3835 69.7383 29.3257 69.9395C29.2679 70.1407 29.264 70.3536 29.3145 70.5567C29.3649 70.7599 29.4678 70.9462 29.6129 71.0971C29.7581 71.2479 29.9403 71.358 30.1414 71.4162L81.776 86.2982C81.9771 86.3558 82.1898 86.3597 82.3928 86.3092C82.5958 86.2588 82.7821 86.156 82.9329 86.011C83.0836 85.866 83.1937 85.6839 83.252 85.483C83.3103 85.2821 83.3148 85.0694 83.265 84.8662L70.3899 32.6736C70.3268 32.4189 70.1815 32.192 69.9766 32.0281C69.7716 31.8642 69.5183 31.7724 69.256 31.7669ZM68.568 35.2543L80.455 83.4342L32.7887 69.6957L68.568 35.2543Z" fill="white"/>
<path d="M49.9977 50.2327C49.8186 50.2361 49.6426 50.2797 49.4826 50.3604C49.3227 50.441 49.183 50.5566 49.0738 50.6986C48.9646 50.8406 48.8887 51.0053 48.8518 51.1806C48.8149 51.3558 48.8179 51.5372 48.8606 51.7111L55.2585 77.6357C55.3086 77.8393 55.4114 78.0261 55.5567 78.1773C55.702 78.3285 55.8845 78.4388 56.086 78.497C56.2874 78.5551 56.5007 78.5592 56.7042 78.5088C56.9077 78.4583 57.0943 78.3551 57.2453 78.2095L76.5024 59.6488C76.653 59.5033 76.7626 59.3207 76.8203 59.1195C76.878 58.9182 76.8817 58.7053 76.8312 58.5021C76.7807 58.2989 76.6776 58.1126 76.5324 57.9618C76.3871 57.811 76.2048 57.7011 76.0036 57.643L50.3475 50.2792C50.2339 50.2459 50.116 50.2303 49.9977 50.2327ZM51.6706 53.1399L73.3584 59.3645L57.0783 75.0539L51.6706 53.1399Z" fill="white"/>
<path d="M43.645 24.336C43.4879 24.3328 43.3316 24.3607 43.1853 24.418C43.0389 24.4753 42.9053 24.5609 42.7921 24.67L23.535 43.2296C23.3845 43.3752 23.2749 43.5577 23.2172 43.759C23.1594 43.9603 23.1557 44.1731 23.2062 44.3763C23.2567 44.5795 23.3598 44.7658 23.505 44.9166C23.6503 45.0674 23.8326 45.1774 24.0338 45.2355L49.6857 52.6004C49.8868 52.6579 50.0995 52.6615 50.3025 52.611C50.5055 52.5604 50.6917 52.4574 50.8424 52.3123C50.993 52.1672 51.1029 51.9851 51.1611 51.7841C51.2192 51.5832 51.2236 51.3705 51.1737 51.1673L44.7789 25.2438C44.7162 24.9887 44.5711 24.7614 44.3661 24.597C44.1611 24.4327 43.9077 24.3417 43.645 24.336ZM42.9581 27.8235L48.3626 49.7375L26.68 43.5129L42.9581 27.8235ZM94.9541 39.1144C94.7971 39.1114 94.6411 39.1393 94.4949 39.1966C94.3488 39.2539 94.2154 39.3395 94.1023 39.4484L74.843 58.007C74.6919 58.1523 74.5818 58.335 74.5237 58.5364C74.4657 58.7379 74.4617 58.9511 74.5123 59.1546C74.5629 59.3581 74.6662 59.5446 74.8118 59.6955C74.9575 59.8463 75.1403 59.9562 75.3418 60.0139L100.995 67.3777C101.196 67.4352 101.409 67.4389 101.612 67.3883C101.815 67.3378 102.001 67.2348 102.151 67.0897C102.302 66.9446 102.412 66.7624 102.47 66.5615C102.528 66.3605 102.533 66.1478 102.483 65.9447L96.0891 40.0212C96.0261 39.7661 95.8808 39.5388 95.6756 39.3747C95.4704 39.2106 95.2168 39.1198 94.9541 39.1144ZM94.2672 42.6019L99.6717 64.5169L77.9891 58.2923L94.2672 42.6019ZM56.3711 76.1777C56.0784 76.189 55.8001 76.3075 55.589 76.5106L36.3319 95.0714C36.1814 95.2169 36.0718 95.3994 36.014 95.6007C35.9563 95.802 35.9526 96.0149 36.0031 96.2181C36.0536 96.4212 36.1567 96.6076 36.3019 96.7584C36.4472 96.9091 36.6295 97.0191 36.8307 97.0772L62.4879 104.441C62.6888 104.498 62.9013 104.502 63.104 104.451C63.3067 104.4 63.4926 104.298 63.6431 104.153C63.7936 104.008 63.9034 103.826 63.9616 103.625C64.0198 103.424 64.0244 103.212 63.9748 103.009L57.5758 77.0845C57.5099 76.8178 57.3541 76.5821 57.1347 76.4169C56.9152 76.2518 56.6455 76.1673 56.3711 76.1777ZM55.756 79.6652L61.1648 101.58L39.4769 95.3556L55.756 79.6652Z" fill="white"/>
</svg>
