<svg width="200" height="200" viewBox="0 0 200 200" fill="none" xmlns="http://www.w3.org/2000/svg">
<g opacity="0.6">
<path d="M94.611 0V31.7372H105.391V0H94.61H94.611ZM50.5927 9.5375L41.7607 15.7213L59.9612 41.7123L68.7884 35.5283L50.5927 9.5375ZM149.407 9.5375L131.212 35.5285L140.04 41.7125L158.241 15.7213L149.409 9.5375H149.407ZM99.9987 40.4207C73.6275 40.4207 52.2499 56.4345 52.2499 76.1915L79.3785 158.35H120.624L147.75 76.1915C147.75 56.4348 126.374 40.4207 100.001 40.4207H99.9987ZM14.2447 49.9455L10.5615 60.0812L40.3697 70.9335L44.0665 60.8027L14.244 49.9455H14.2447ZM185.755 49.9455L155.932 60.8035L159.617 70.9355L189.439 60.0813L185.755 49.9455ZM42.6265 96.2802L11.9765 104.501L14.7575 114.906L45.4075 106.697L42.627 96.2802H42.6265ZM157.373 96.2802L154.594 106.697L185.244 114.905L188.023 104.5L157.373 96.2798V96.2802ZM78.7772 164.339V178.62H121.225V164.341H78.7774L78.7772 164.339ZM78.7772 185.719V200H121.225V185.721H78.7774L78.7772 185.719Z" fill="#1E85D0"/>
</g>
</svg>
