<svg width="101" height="100" viewBox="0 0 101 100" fill="none" xmlns="http://www.w3.org/2000/svg">
<path d="M35.7125 4.68359L32.5245 11.8008C31.8976 11.7255 31.267 11.685 30.6356 11.6795C28.5801 11.6667 26.5824 12.0309 24.7143 12.7056L20.1961 6.37797L11.6397 12.6269L16.3159 19.1675C14.8741 21.2462 13.9116 23.619 13.4981 26.1148L5.19629 27.0256L6.23499 37.5681L15.0708 36.5964C16.06 38.5817 17.4183 40.3604 19.0729 41.8376L15.3017 50.2667L24.8968 54.5602L28.6863 46.0944C30.9514 46.3357 33.1714 46.1193 35.2449 45.5114L40.7103 52.999L46.8745 48.4932L49.1394 52.4101C46.2818 54.5949 43.727 57.1495 41.5422 60.0071L31.9773 54.499L26.9794 63.5782L36.3316 69.0072C34.9351 72.3513 33.9974 75.869 33.5443 79.4645H22.668V89.904H33.5933C33.9123 92.2165 34.4344 94.4964 35.1538 96.7172H68.0564C63.409 94.6266 60.1739 89.9568 60.1739 84.5294C60.1739 77.1518 66.1504 71.1691 73.5284 71.1691C80.9057 71.1691 86.8886 77.1518 86.8886 84.5294C86.8886 89.957 83.6491 94.6268 78.9997 96.7174H96.781V39.2866L94.5097 38.0417L89.1475 47.3756C85.8224 45.9521 82.3183 44.9897 78.7325 44.5151V33.7238H68.2931V44.5034C64.7362 44.9653 61.3302 45.8993 58.1276 47.2299L52.8562 38.0419L45.8603 41.9771L44.0627 39.4566C45.4696 37.6245 46.494 35.5282 47.0748 33.2924L55.7103 32.3513L54.6722 21.8088L46.4617 22.6167C45.5078 20.1676 44.0083 17.9682 42.077 16.1855L45.3076 8.97695L35.7125 4.68359ZM30.3987 21.056C34.9266 21.0093 38.7433 24.5203 39.0223 29.0902C39.3099 33.8076 35.7179 37.8631 31.0003 38.1509C26.2824 38.4391 22.2273 34.8523 21.9395 30.1347C21.6519 25.4176 25.2379 21.3623 29.9556 21.0743C30.1033 21.0653 30.253 21.0575 30.3987 21.056Z" fill="white"/>
</svg>
