<svg width="200" height="200" viewBox="0 0 200 200" fill="none" xmlns="http://www.w3.org/2000/svg">
<g opacity="0.6">
<path d="M70.1668 8.71582L63.7586 23.0221C62.4984 22.8708 61.2309 22.7894 59.9617 22.7783C55.8301 22.7525 51.8144 23.4846 48.0594 24.8408L38.9773 12.1217L21.7781 24.6826L31.1777 37.8299C28.2795 42.0083 26.3449 46.778 25.5137 51.7947L8.82617 53.6256L10.9141 74.817L28.675 72.8639C30.6634 76.8544 33.3936 80.4298 36.7195 83.399L29.1391 100.342L48.4262 108.973L56.0434 91.9557C60.5965 92.4408 65.059 92.0057 69.2269 90.7838L80.2129 105.835L92.6035 96.7775L97.1562 104.651C91.4121 109.043 86.2768 114.178 81.8851 119.922L62.6586 108.85L52.6125 127.1L71.4113 138.013C68.6041 144.735 66.7194 151.806 65.8086 159.033H43.9461V180.017H65.907C66.5481 184.666 67.5978 189.249 69.0437 193.713H135.181C125.839 189.51 119.337 180.124 119.337 169.214C119.337 154.384 131.35 142.358 146.18 142.358C161.01 142.358 173.036 154.384 173.036 169.214C173.036 180.124 166.524 189.511 157.179 193.713H192.921V78.2713L188.355 75.7689L177.577 94.5311C170.893 91.6697 163.849 89.7351 156.641 88.7811V67.0896H135.657V88.7576C128.507 89.6861 121.661 91.5635 115.223 94.2381L104.627 75.7693L90.5648 83.6795L86.9516 78.6131C89.7797 74.9303 91.8387 70.7166 93.0062 66.2225L110.364 64.3307L108.278 43.1393L91.7738 44.7631C89.8563 39.8403 86.8421 35.4192 82.9602 31.8357L89.4539 17.3459L70.1668 8.71582ZM59.4855 41.626C68.5871 41.5322 76.259 48.5896 76.8199 57.7756C77.398 67.258 70.1777 75.41 60.6949 75.9885C51.2113 76.5678 43.0602 69.358 42.4816 59.8752C41.9035 50.3932 49.1117 42.2416 58.5949 41.6627C58.8918 41.6447 59.1926 41.6291 59.4855 41.626Z" fill="#1E83CE"/>
</g>
</svg>
