<svg width="100" height="100" viewBox="0 0 100 100" fill="none" xmlns="http://www.w3.org/2000/svg">
<g clip-path="url(#clip0_838_423)">
<path d="M47.5597 0.34668V16.1355H52.9225V0.34668H47.5592H47.5597ZM25.6611 5.09147L21.2673 8.16785L30.3218 21.098L34.7132 18.0216L25.6611 5.09147ZM74.82 5.09147L65.7681 18.0217L70.1602 21.0981L79.2146 8.16785L74.8208 5.09147H74.82ZM50.24 20.4555C37.1206 20.4555 26.4855 28.4221 26.4855 38.251L39.9817 79.1236H60.5006L73.9956 38.251C73.9956 28.4223 63.3611 20.4555 50.2412 20.4555H50.24ZM7.57842 25.1939L5.74609 30.2363L20.5753 35.6352L22.4144 30.5952L7.57809 25.1939H7.57842ZM92.9027 25.1939L78.0663 30.5957L79.8992 35.6362L94.7356 30.2364L92.9027 25.1939ZM21.698 48.2449L6.45004 52.3347L7.83355 57.5111L23.0815 53.4272L21.6983 48.2449H21.698ZM78.7831 48.2449L77.4006 53.4271L92.6486 57.5104L94.0311 52.3339L78.7831 48.2447V48.2449ZM39.6825 82.1031V89.2077H60.7998V82.1042H39.6826L39.6825 82.1031ZM39.6825 92.7396V99.8442H60.7998V92.7407H39.6826L39.6825 92.7396Z" fill="white"/>
</g>
<defs>
<clipPath id="clip0_838_423">
<rect width="99.4975" height="99.4975" fill="white" transform="translate(0.492188 0.347656)"/>
</clipPath>
</defs>
</svg>
