<svg width="146" height="146" viewBox="0 0 146 146" fill="none" xmlns="http://www.w3.org/2000/svg">
<path d="M73.2561 54.4919C106.971 54.4919 127.606 66.2225 127.606 72.6087C127.606 78.9948 106.971 90.7254 73.2561 90.7254C39.5409 90.7254 18.906 78.9948 18.906 72.6087C18.906 66.2225 39.5409 54.4919 73.2561 54.4919ZM73.2561 45.4336C38.2365 45.4336 9.84766 57.599 9.84766 72.6087C9.84766 87.6184 38.2365 99.7837 73.2561 99.7837C108.276 99.7837 136.665 87.6184 136.665 72.6087C136.665 57.599 108.276 45.4336 73.2561 45.4336Z" fill="#00BCD4"/>
<path d="M73.2566 63.5503C71.465 63.5503 69.7137 64.0816 68.2241 65.0769C66.7344 66.0722 65.5734 67.487 64.8878 69.1422C64.2022 70.7974 64.0228 72.6187 64.3723 74.3758C64.7218 76.133 65.5845 77.747 66.8514 79.0139C68.1182 80.2807 69.7323 81.1434 71.4894 81.493C73.2466 81.8425 75.0679 81.6631 76.7231 80.9775C78.3783 80.2919 79.793 79.1308 80.7883 77.6412C81.7837 76.1516 82.315 74.4002 82.315 72.6086C82.315 70.2062 81.3606 67.9022 79.6618 66.2034C77.9631 64.5047 75.659 63.5503 73.2566 63.5503Z" fill="#00BCD4"/>
<path d="M48.156 25.0837C57.2914 25.0837 75.0457 39.4729 88.9458 63.5501C105.803 92.7497 105.962 116.483 100.432 119.676C99.7938 120.006 99.0797 120.163 98.3619 120.129C89.2266 120.129 71.4677 105.744 57.5676 81.6668C40.71 52.4672 40.5515 28.7343 46.0816 25.5412C46.7209 25.2096 47.4367 25.0488 48.156 25.0837ZM48.1515 16.0299C45.8432 15.9882 43.5655 16.5619 41.5525 17.6921C28.5537 25.197 32.2133 55.8686 49.7231 86.1959C64.5969 111.967 84.6883 129.191 98.3665 129.191C100.674 129.23 102.95 128.653 104.961 127.52C117.96 120.02 114.3 89.3482 96.7903 59.0209C81.9165 33.2499 61.8251 16.0254 48.1469 16.0254L48.1515 16.0299Z" fill="#00BCD4"/>
<path d="M98.3619 25.0836C99.0797 25.0495 99.7938 25.2058 100.432 25.5366C105.962 28.7342 105.803 52.4671 88.9457 81.6667C75.0412 105.744 57.2868 120.133 48.1514 120.133C47.4336 120.167 46.7195 120.011 46.0816 119.68C40.5515 116.478 40.71 92.745 57.5676 63.55C71.4722 39.4728 89.2265 25.0836 98.3619 25.0836ZM98.3619 16.0253C84.6838 16.0253 64.5969 33.2543 49.7185 59.0208C32.2178 89.3481 28.5537 120.02 41.5524 127.52C43.5646 128.653 45.8423 129.23 48.1514 129.191C61.8295 129.191 81.9164 111.962 96.7948 86.1958C114.296 55.8685 117.96 25.1969 104.961 17.6966C102.949 16.5632 100.671 15.9863 98.3619 16.0253Z" fill="#00BCD4"/>
</svg>
