<svg width="200" height="200" viewBox="0 0 200 200" fill="none" xmlns="http://www.w3.org/2000/svg">
<g opacity="0.6" clip-path="url(#clip0_868_445)">
<path d="M87.5002 16.666C100.8 16.6651 113.831 20.4086 125.103 27.4679C136.374 34.5273 145.431 44.6174 151.235 56.5835C157.04 68.5495 159.359 81.9081 157.926 95.1304C156.493 108.353 151.367 120.904 143.134 131.349L173.567 161.783C175.085 163.354 175.925 165.459 175.906 167.644C175.887 169.829 175.01 171.919 173.465 173.464C171.92 175.01 169.83 175.886 167.645 175.905C165.46 175.924 163.355 175.084 161.784 173.566L131.35 143.133C122.479 150.124 112.064 154.893 100.975 157.04C89.8864 159.188 78.4445 158.653 67.6044 155.479C56.7644 152.306 46.8404 146.586 38.6605 138.797C30.4805 131.008 24.2819 121.376 20.5816 110.704C16.8814 100.032 15.7869 88.6305 17.3894 77.4497C18.9919 66.2689 23.245 55.6334 29.7938 46.4306C36.3426 37.2278 44.9972 29.7245 55.0356 24.5468C65.074 19.3691 76.2051 16.667 87.5002 16.666ZM87.5002 33.3327C73.1343 33.3327 59.3568 39.0395 49.1985 49.1977C39.0403 59.3559 33.3335 73.1335 33.3335 87.4993C33.3335 101.865 39.0403 115.643 49.1985 125.801C59.3568 135.959 73.1343 141.666 87.5002 141.666C101.866 141.666 115.644 135.959 125.802 125.801C135.96 115.643 141.667 101.865 141.667 87.4993C141.667 73.1335 135.96 59.3559 125.802 49.1977C115.644 39.0395 101.866 33.3327 87.5002 33.3327ZM87.5002 41.666C99.6559 41.666 111.314 46.4949 119.909 55.0903C128.505 63.6857 133.334 75.3436 133.334 87.4993C133.334 99.6551 128.505 111.313 119.909 119.908C111.314 128.504 99.6559 133.333 87.5002 133.333C75.3444 133.333 63.6865 128.504 55.0911 119.908C46.4957 111.313 41.6668 99.6551 41.6668 87.4993C41.6668 75.3436 46.4957 63.6857 55.0911 55.0903C63.6865 46.4949 75.3444 41.666 87.5002 41.666Z" fill="#1E85D0"/>
</g>
<defs>
<clipPath id="clip0_868_445">
<rect width="200" height="200" fill="white"/>
</clipPath>
</defs>
</svg>
