<svg width="111" height="110" viewBox="0 0 111 110" fill="none" xmlns="http://www.w3.org/2000/svg">
<path d="M36.5077 11.458C36.5077 10.5463 36.1455 9.67198 35.5009 9.02733C34.8562 8.38267 33.9819 8.02051 33.0702 8.02051C32.1585 8.02051 31.2842 8.38267 30.6395 9.02733C29.9949 9.67198 29.6327 10.5463 29.6327 11.458V18.6997C23.0327 19.2268 18.706 20.5193 15.5252 23.7047C12.3398 26.8855 11.0473 31.2168 10.5156 37.8122H101.458C100.926 31.2122 99.634 26.8855 96.4485 23.7047C93.2677 20.5193 88.9365 19.2268 82.341 18.6951V11.458C82.341 10.5463 81.9789 9.67198 81.3342 9.02733C80.6896 8.38267 79.8152 8.02051 78.9035 8.02051C77.9919 8.02051 77.1175 8.38267 76.4729 9.02733C75.8282 9.67198 75.466 10.5463 75.466 11.458V18.3926C72.4181 18.333 68.999 18.333 65.1535 18.333H46.8202C42.9748 18.333 39.5556 18.333 36.5077 18.3926V11.458Z" fill="white"/>
<path fill-rule="evenodd" clip-rule="evenodd" d="M10.1543 55C10.1543 51.1546 10.1543 47.7354 10.2139 44.6875H101.761C101.821 47.7354 101.821 51.1546 101.821 55V64.1667C101.821 81.4504 101.821 90.0946 96.4493 95.4617C91.0776 100.829 82.438 100.833 65.1543 100.833H46.821C29.5372 100.833 20.893 100.833 15.526 95.4617C10.1589 90.09 10.1543 81.4504 10.1543 64.1667V55ZM78.9043 64.1667C80.1199 64.1667 81.2857 63.6838 82.1452 62.8242C83.0047 61.9647 83.4876 60.7989 83.4876 59.5833C83.4876 58.3678 83.0047 57.202 82.1452 56.3424C81.2857 55.4829 80.1199 55 78.9043 55C77.6887 55 76.5229 55.4829 75.6634 56.3424C74.8038 57.202 74.321 58.3678 74.321 59.5833C74.321 60.7989 74.8038 61.9647 75.6634 62.8242C76.5229 63.6838 77.6887 64.1667 78.9043 64.1667ZM78.9043 82.5C80.1199 82.5 81.2857 82.0171 82.1452 81.1576C83.0047 80.298 83.4876 79.1322 83.4876 77.9167C83.4876 76.7011 83.0047 75.5353 82.1452 74.6758C81.2857 73.8162 80.1199 73.3333 78.9043 73.3333C77.6887 73.3333 76.5229 73.8162 75.6634 74.6758C74.8038 75.5353 74.321 76.7011 74.321 77.9167C74.321 79.1322 74.8038 80.298 75.6634 81.1576C76.5229 82.0171 77.6887 82.5 78.9043 82.5ZM60.571 59.5833C60.571 60.7989 60.0881 61.9647 59.2285 62.8242C58.369 63.6838 57.2032 64.1667 55.9876 64.1667C54.7721 64.1667 53.6063 63.6838 52.7467 62.8242C51.8872 61.9647 51.4043 60.7989 51.4043 59.5833C51.4043 58.3678 51.8872 57.202 52.7467 56.3424C53.6063 55.4829 54.7721 55 55.9876 55C57.2032 55 58.369 55.4829 59.2285 56.3424C60.0881 57.202 60.571 58.3678 60.571 59.5833ZM60.571 77.9167C60.571 79.1322 60.0881 80.298 59.2285 81.1576C58.369 82.0171 57.2032 82.5 55.9876 82.5C54.7721 82.5 53.6063 82.0171 52.7467 81.1576C51.8872 80.298 51.4043 79.1322 51.4043 77.9167C51.4043 76.7011 51.8872 75.5353 52.7467 74.6758C53.6063 73.8162 54.7721 73.3333 55.9876 73.3333C57.2032 73.3333 58.369 73.8162 59.2285 74.6758C60.0881 75.5353 60.571 76.7011 60.571 77.9167ZM33.071 64.1667C34.2865 64.1667 35.4523 63.6838 36.3119 62.8242C37.1714 61.9647 37.6543 60.7989 37.6543 59.5833C37.6543 58.3678 37.1714 57.202 36.3119 56.3424C35.4523 55.4829 34.2865 55 33.071 55C31.8554 55 30.6896 55.4829 29.8301 56.3424C28.9705 57.202 28.4876 58.3678 28.4876 59.5833C28.4876 60.7989 28.9705 61.9647 29.8301 62.8242C30.6896 63.6838 31.8554 64.1667 33.071 64.1667ZM33.071 82.5C34.2865 82.5 35.4523 82.0171 36.3119 81.1576C37.1714 80.298 37.6543 79.1322 37.6543 77.9167C37.6543 76.7011 37.1714 75.5353 36.3119 74.6758C35.4523 73.8162 34.2865 73.3333 33.071 73.3333C31.8554 73.3333 30.6896 73.8162 29.8301 74.6758C28.9705 75.5353 28.4876 76.7011 28.4876 77.9167C28.4876 79.1322 28.9705 80.298 29.8301 81.1576C30.6896 82.0171 31.8554 82.5 33.071 82.5Z" fill="white"/>
</svg>
