<svg width="109" height="108" viewBox="0 0 109 108" fill="none" xmlns="http://www.w3.org/2000/svg">
<g clip-path="url(#clip0_838_419)">
<path d="M47.932 9.31445C55.0875 9.31397 62.0987 11.328 68.163 15.1261C74.2274 18.9243 79.0999 24.353 82.223 30.791C85.3461 37.229 86.5936 44.4162 85.8227 51.5301C85.0518 58.644 82.2937 65.3972 77.864 71.0168L94.2379 87.3906C95.0546 88.2362 95.5065 89.3688 95.4963 90.5444C95.4861 91.7199 95.0145 92.8445 94.1833 93.6757C93.352 94.507 92.2274 94.9785 91.0519 94.9888C89.8763 94.999 88.7438 94.5471 87.8982 93.7304L71.5243 77.3565C66.7513 81.118 61.1481 83.6836 55.1819 84.8391C49.2158 85.9947 43.0598 85.7067 37.2276 83.9993C31.3954 82.2919 26.056 79.2145 21.6551 75.0238C17.2541 70.8332 13.919 65.6509 11.9282 59.9092C9.9374 54.1676 9.34852 48.0331 10.2107 42.0175C11.0729 36.002 13.3612 30.2798 16.8846 25.3285C20.408 20.3772 25.0644 16.3403 30.4653 13.5545C35.8662 10.7687 41.855 9.31497 47.932 9.31445ZM47.932 18.2815C40.2028 18.2815 32.7901 21.3519 27.3248 26.8173C21.8594 32.2826 18.789 39.6953 18.789 47.4245C18.789 55.1536 21.8594 62.5663 27.3248 68.0316C32.7901 73.497 40.2028 76.5674 47.932 76.5674C55.6612 76.5674 63.0738 73.497 68.5391 68.0316C74.0045 62.5663 77.0749 55.1536 77.0749 47.4245C77.0749 39.6953 74.0045 32.2826 68.5391 26.8173C63.0738 21.3519 55.6612 18.2815 47.932 18.2815ZM47.932 22.765C54.472 22.765 60.7443 25.3631 65.3688 29.9876C69.9933 34.6122 72.5914 40.8844 72.5914 47.4245C72.5914 53.9645 69.9933 60.2368 65.3688 64.8613C60.7443 69.4858 54.472 72.0839 47.932 72.0839C41.3919 72.0839 35.1197 69.4858 30.4951 64.8613C25.8706 60.2368 23.2725 53.9645 23.2725 47.4245C23.2725 40.8844 25.8706 34.6122 30.4951 29.9876C35.1197 25.3631 41.3919 22.765 47.932 22.765Z" fill="white"/>
</g>
<defs>
<clipPath id="clip0_838_419">
<rect width="107.605" height="107.605" fill="white" transform="translate(0.855469 0.347656)"/>
</clipPath>
</defs>
</svg>
