<svg width="200" height="200" viewBox="0 0 200 200" fill="none" xmlns="http://www.w3.org/2000/svg">
<g opacity="0.6">
<path d="M79.7004 72.7492L83.9921 88.2742C88.0337 102.899 90.0504 110.216 95.9921 113.541C101.934 116.874 109.475 114.908 124.559 110.991L140.559 106.824C155.642 102.908 163.184 100.949 166.617 95.1908C170.05 89.4242 168.034 82.1075 163.984 67.4825L159.7 51.9658C155.659 37.3325 153.634 30.0158 147.7 26.6908C141.75 23.3575 134.209 25.3242 119.125 29.2492L103.125 33.3992C88.0421 37.3158 80.5004 39.2825 77.0754 45.0492C73.6421 50.8075 75.6587 58.1242 79.7004 72.7492Z" fill="#1E84CF"/>
<path d="M18.9756 43.7248C19.1951 42.9334 19.5685 42.1929 20.0745 41.5459C20.5804 40.8988 21.2088 40.3578 21.924 39.9538C22.6391 39.5498 23.4268 39.2908 24.2421 39.1914C25.0575 39.092 25.8844 39.1544 26.6756 39.3748L40.8673 43.3082C44.6273 44.3319 48.0585 46.3111 50.8272 49.0535C53.5958 51.7959 55.6077 55.208 56.6673 58.9581L74.5923 123.841L75.9089 128.4C81.2235 130.359 85.7021 134.087 88.5922 138.958L91.1756 138.158L165.092 118.95C165.887 118.743 166.714 118.695 167.527 118.808C168.341 118.921 169.124 119.193 169.832 119.608C170.54 120.024 171.159 120.575 171.654 121.229C172.149 121.884 172.51 122.63 172.717 123.425C172.924 124.219 172.972 125.047 172.859 125.86C172.746 126.673 172.474 127.456 172.059 128.164C171.643 128.872 171.092 129.491 170.438 129.987C169.783 130.482 169.037 130.843 168.242 131.05L94.6006 150.183L91.8506 151.033C91.8006 161.616 84.4923 171.3 73.4339 174.166C60.1839 177.616 46.5589 169.983 43.0089 157.133C39.4589 144.283 47.3256 131.058 60.5756 127.616C61.2367 127.45 61.895 127.305 62.5506 127.183L44.6173 62.2831C44.1323 60.6169 43.2255 59.104 41.9846 57.8909C40.7437 56.6777 39.2107 55.8053 37.5339 55.3582L23.3339 51.4165C22.5426 51.1978 21.8022 50.8253 21.1548 50.3203C20.5075 49.8154 19.966 49.1878 19.5613 48.4735C19.1566 47.7593 18.8965 46.9723 18.796 46.1575C18.6955 45.3426 18.7565 44.516 18.9756 43.7248Z" fill="#1E84CF"/>
</g>
</svg>
